<mxfile host="app.diagrams.net" modified="2023-07-26T09:02:59.701Z" agent="Mozilla/5.0 (Macintosh; Intel Mac OS X 10_15_7) AppleWebKit/537.36 (KHTML, like Gecko) Chrome/114.0.0.0 Safari/537.36" version="21.6.5" etag="mna4LfURtuu04idtG8gD" type="github">
  <diagram name="페이지-1" id="T4ABfB5f5-Li1DC-toFG">
    <mxGraphModel>
      <root>
        <mxCell id="0" />
        <mxCell id="1" parent="0" />
      </root>
    </mxGraphModel>
  </diagram>
</mxfile>
